<?xml version="1.0" encoding="UTF-8"?>
<svg version="1.1" xmlns="http://www.w3.org/2000/svg" width="958" height="164">
<path d="M0 0 C0.02705308 2.41674224 0.04686438 4.8331794 0.0625 7.25 C0.07087891 7.93191406 0.07925781 8.61382812 0.08789062 9.31640625 C0.10444842 12.72731171 -0.08543413 15.72148706 -1 19 C-12.15676906 19.07448191 -23.28678774 18.84487932 -34.4375 18.5 C-36.05533246 18.45161926 -37.673171 18.40344115 -39.29101562 18.35546875 C-43.19408405 18.23930433 -47.09706112 18.12043537 -51 18 C-51.53173828 19.89298828 -51.53173828 19.89298828 -52.07421875 21.82421875 C-54.3452228 29.38143163 -57.11427843 36.76031419 -59.83795166 44.16320801 C-60.83136014 46.86377096 -61.81991677 49.56607784 -62.80810547 52.26855469 C-66.10701086 61.26937073 -69.45736944 70.24663851 -72.92578125 79.18359375 C-87.32218939 111.35851435 -87.32218939 111.35851435 -86.75 145.1875 C-84.56653373 148.69664222 -83.24139236 150.43249853 -79.1640625 151.46484375 C-68.91530826 153.11130427 -58.61547305 150.68372299 -50 145 C-43.85892094 140.11181497 -38.42883221 134.50282806 -33.10546875 128.75 C-30.71205238 126.76066692 -29.05805942 126.34156336 -26 126 C-26.2655552 130.72408721 -27.48413131 133.06226686 -30.9465332 136.28637695 C-31.77737427 137.01087036 -31.77737427 137.01087036 -32.625 137.75 C-33.20403076 138.2658667 -33.78306152 138.7817334 -34.37963867 139.31323242 C-45.41877437 148.91292972 -57.35163512 155.81160363 -71 161 C-71.94230469 161.3609375 -72.88460937 161.721875 -73.85546875 162.09375 C-79.47580594 163.93035035 -84.94375633 164.29041791 -90.8125 164.375 C-91.88939087 164.39614868 -91.88939087 164.39614868 -92.98803711 164.41772461 C-99.34745452 164.35915005 -103.28125209 162.71874791 -107.75 158.25 C-113.32191104 150.20168405 -112.3911005 141.22299633 -111 132 C-110.31021944 128.81405033 -109.44401651 125.69508368 -108.53125 122.56640625 C-108.27081909 121.66659531 -108.01038818 120.76678436 -107.74206543 119.83970642 C-104.234552 108.04496964 -99.84028115 96.56978122 -95.5 85.0625 C-94.61405663 82.69546854 -93.72897525 80.32811428 -92.84472656 77.96044922 C-91.07604259 73.22619833 -89.30392966 68.49325441 -87.52929688 63.76123047 C-84.20596347 54.88980986 -80.93056444 46.00088137 -77.6628418 37.1088562 C-76.76367003 34.66219635 -75.86346999 32.21591744 -74.96289062 29.76977539 C-73.64130904 26.18007735 -72.32040125 22.59013237 -71 19 C-73.5183134 18.97105169 -76.03628621 18.95010922 -78.5546875 18.93359375 C-79.60982544 18.92023987 -79.60982544 18.92023987 -80.6862793 18.90661621 C-93.64895145 18.84311032 -108.26467264 22.38782208 -117.77734375 31.7265625 C-118.51082031 32.47679687 -119.24429688 33.22703125 -120 34 C-120.66 34 -121.32 34 -122 34 C-122.2475 34.53625 -122.495 35.0725 -122.75 35.625 C-124 38 -124 38 -126 40.6875 C-129.19945964 45.98660504 -130.98532496 52.80652884 -130 59 C-128.31830353 62.1009044 -128.31830353 62.1009044 -125 64 C-121.2947699 64.41111401 -117.71118727 64.29247535 -114 64 C-117.31960761 70.30839521 -120.69925996 76.30784406 -125 82 C-131.57036654 76.15967419 -134.57839545 69.59835555 -135.23828125 60.8359375 C-135.56636408 45.53691702 -129.57849994 36.02583735 -121 24 C-120.37609375 23.09378906 -119.7521875 22.18757813 -119.109375 21.25390625 C-110.5351547 9.37420383 -97.90001397 5.29399256 -83.91468811 2.965271 C-78.83644223 2.19852367 -73.81236443 1.6975868 -68.68359375 1.453125 C-67.88489365 1.41320938 -67.08619354 1.37329376 -66.26329041 1.33216858 C-54.20454753 0.77466464 -42.1312397 0.6351366 -30.0625 0.4375 C-27.58137502 0.39417645 -25.10025516 0.35055849 -22.61914062 0.30664062 C-18.11599489 0.2279918 -13.61284095 0.15010473 -9.10961914 0.07592773 C-8.21650528 0.06117905 -7.32339142 0.04643036 -6.4032135 0.03123474 C-4.26896386 0.00349574 -2.13442989 0 0 0 Z " fill="#FE0000" transform="translate(135,0)"/>
<path d="M0 0 C0.33 3.63 0.66 7.26 1 11 C1.68964844 10.45730469 2.37929688 9.91460937 3.08984375 9.35546875 C10.87043331 3.43197464 17.88409235 -1.12398974 28 0 C34.13386335 1.82939784 37.36718084 4.94087264 41 10 C41.495 10.99 41.495 10.99 42 12 C42.70962891 11.31164062 42.70962891 11.31164062 43.43359375 10.609375 C50.75888874 3.81241513 58.73320227 -0.40017282 68.9140625 -0.2109375 C73.84139409 0.28733199 77.57699832 2.20431388 80.8125 5.875 C86.12047743 13.4578249 86.15194633 21.32806866 86.28125 30.2890625 C86.29965942 31.26990814 86.31806885 32.25075378 86.33703613 33.26132202 C86.41540172 37.44136096 86.48349693 41.62155135 86.55224609 45.80175781 C86.60402613 48.86010539 86.66123783 51.91831821 86.71875 54.9765625 C86.73232544 55.9214151 86.74590088 56.8662677 86.7598877 57.8397522 C86.77660522 58.72101776 86.79332275 59.60228333 86.81054688 60.51025391 C86.82307495 61.2826944 86.83560303 62.05513489 86.84851074 62.85098267 C86.96123687 65.33714547 86.96123687 65.33714547 88 69 C90.97 69.66 93.94 70.32 97 71 C97 71.99 97 72.98 97 74 C85.12 74 73.24 74 61 74 C61 73.01 61 72.02 61 71 C61.63808594 70.81824219 62.27617187 70.63648438 62.93359375 70.44921875 C63.75988281 70.19785156 64.58617187 69.94648438 65.4375 69.6875 C66.26121094 69.44386719 67.08492188 69.20023437 67.93359375 68.94921875 C68.61550781 68.63597656 69.29742187 68.32273437 70 68 C70.92843117 65.21470649 71.13104609 63.51779697 71.14526367 60.63964844 C71.15164352 59.76153503 71.15802338 58.88342163 71.16459656 57.97869873 C71.16570938 57.0318219 71.1668222 56.08494507 71.16796875 55.109375 C71.17129715 54.13139954 71.17462555 53.15342407 71.17805481 52.14581299 C71.18311971 50.07458974 71.18546327 48.00335834 71.18530273 45.93212891 C71.18748189 42.77622855 71.20562207 39.62068191 71.22460938 36.46484375 C71.22754492 34.45052203 71.22952864 32.43619864 71.23046875 30.421875 C71.24124702 29.01370514 71.24124702 29.01370514 71.25224304 27.5770874 C71.23415301 22.33980148 70.89222722 17.91100096 69 13 C65.55171479 10.30865545 62.81536104 9.77945976 58.5625 10.0625 C53.26370521 10.88457272 49.24454867 12.85144501 45.32739258 16.60107422 C43.36603241 20.1457358 43.59135064 23.62420493 43.63671875 27.5703125 C43.63622025 28.40658173 43.63572174 29.24285095 43.63520813 30.10446167 C43.63754655 31.87467828 43.64726147 33.64489834 43.66381836 35.41503906 C43.68723532 38.09471206 43.68439919 40.77337682 43.67773438 43.453125 C43.69278123 51.87523163 43.85972155 59.79702043 46 68 C48.97 68.99 51.94 69.98 55 71 C55 71.99 55 72.98 55 74 C42.79 74 30.58 74 18 74 C18 73.01 18 72.02 18 71 C18.95712891 70.70996094 18.95712891 70.70996094 19.93359375 70.4140625 C20.75988281 70.15367187 21.58617187 69.89328125 22.4375 69.625 C23.26121094 69.36976563 24.08492188 69.11453125 24.93359375 68.8515625 C27.17798016 68.19117773 27.17798016 68.19117773 28 66 C28.10486005 64.48998797 28.14868383 62.97551143 28.16113281 61.46191406 C28.17074036 60.52043518 28.1803479 59.5789563 28.19024658 58.60894775 C28.1966214 57.07775299 28.1966214 57.07775299 28.203125 55.515625 C28.21167511 53.94309967 28.21167511 53.94309967 28.22039795 52.33880615 C28.22985734 50.11618054 28.23638564 47.89354085 28.24023438 45.67089844 C28.2499208 42.2777437 28.28092792 38.88519949 28.3125 35.4921875 C28.31903189 33.33333693 28.32428163 31.17448203 28.328125 29.015625 C28.3404718 28.00292542 28.3528186 26.99022583 28.36553955 25.94683838 C28.34856119 20.54919943 28.09402009 16.6400854 25 12 C21.42109692 9.40712124 18.43389084 9.93502755 14.24609375 10.51953125 C9.61146151 11.51093954 5.48616369 13.82179686 2 17 C1.4096343 19.24606613 1.4096343 19.24606613 1.51416016 21.79101562 C1.5080069 22.7621228 1.50185364 23.73322998 1.49551392 24.73376465 C1.50988495 25.78068481 1.52425598 26.82760498 1.5390625 27.90625 C1.53997894 28.98249634 1.54089539 30.05874268 1.5418396 31.16760254 C1.5478839 33.44397387 1.56365456 35.72033695 1.58837891 37.99658203 C1.62485679 41.48629981 1.62939855 44.97495536 1.62890625 48.46484375 C1.6387382 50.67448837 1.65039553 52.88412577 1.6640625 55.09375 C1.66628815 56.14067017 1.66851379 57.18759033 1.67080688 58.26623535 C1.68994644 59.72289612 1.68994644 59.72289612 1.70947266 61.20898438 C1.71709625 62.06375366 1.72471985 62.91852295 1.73257446 63.79919434 C1.86752562 66.28909558 1.86752562 66.28909558 4 69 C5.95385067 69.78988145 5.95385067 69.78988145 8.125 70.1875 C9.40375 70.455625 10.6825 70.72375 12 71 C12 71.99 12 72.98 12 74 C0.12 74 -11.76 74 -24 74 C-24 73.01 -24 72.02 -24 71 C-23.44570313 70.84144531 -22.89140625 70.68289062 -22.3203125 70.51953125 C-21.23363281 70.16955078 -21.23363281 70.16955078 -20.125 69.8125 C-19.40570313 69.59207031 -18.68640625 69.37164062 -17.9453125 69.14453125 C-15.12592793 67.48573671 -14.92315274 66.15725288 -14 63 C-13.70952313 59.62547756 -13.71979 56.26424007 -13.734375 52.87890625 C-13.73246155 51.90138901 -13.7305481 50.92387177 -13.72857666 49.91673279 C-13.72721813 47.85325869 -13.73089136 45.78977595 -13.73925781 43.72631836 C-13.74995038 40.57711461 -13.73935707 37.4284828 -13.7265625 34.27929688 C-13.72788438 32.27083208 -13.73044736 30.26236764 -13.734375 28.25390625 C-13.73032654 27.31623917 -13.72627808 26.37857208 -13.72210693 25.41249084 C-13.75683797 20.54057517 -14.09411115 16.57214596 -16 12 C-18.76264289 11.40267181 -21.16032769 11 -24 11 C-24 9.68 -24 8.36 -24 7 C-20.56496228 5.82599412 -17.12659286 4.66206791 -13.6875 3.5 C-12.71103516 3.16613281 -11.73457031 2.83226563 -10.72851562 2.48828125 C-9.79072266 2.17246094 -8.85292969 1.85664062 -7.88671875 1.53125 C-6.59060669 1.09135742 -6.59060669 1.09135742 -5.26831055 0.64257812 C-3 0 -3 0 0 0 Z " fill="#363334" transform="translate(362,76)"/>
<path d="M0 0 C0.33 14.85 0.66 29.7 1 45 C3.97 42.69 6.94 40.38 10 38 C17.12467962 34.54898331 23.68924919 33.71241857 31.3125 36.1875 C36.27956553 38.30638708 38.24109556 41.53840627 40.6875 46.25 C43.25252273 53.57863637 43.14578833 61.26192357 43.2109375 68.9609375 C43.23896367 70.83204063 43.26762772 72.7031343 43.296875 74.57421875 C43.33834892 77.4907242 43.37528653 80.40704409 43.40136719 83.32373047 C43.42886761 86.16148999 43.47467929 88.99847449 43.5234375 91.8359375 C43.52669037 92.71091888 43.52994324 93.58590027 43.53329468 94.48739624 C43.54986115 95.298992 43.56642761 96.11058777 43.58349609 96.94677734 C43.59158295 97.65909515 43.5996698 98.37141296 43.60800171 99.10531616 C44.1181676 101.57115107 45.05928655 102.43875062 47 104 C49.59915538 105.19027984 49.59915538 105.19027984 52 106 C52 106.99 52 107.98 52 109 C40.45 109 28.9 109 17 109 C17 108.01 17 107.02 17 106 C17.55429687 105.80664062 18.10859375 105.61328125 18.6796875 105.4140625 C19.40414062 105.15367187 20.12859375 104.89328125 20.875 104.625 C21.59429688 104.36976563 22.31359375 104.11453125 23.0546875 103.8515625 C25.18157994 103.06122217 25.18157994 103.06122217 27 101 C27.31224877 98.94231976 27.31224877 98.94231976 27.2746582 96.55371094 C27.28419022 95.63225281 27.29372223 94.71079468 27.30354309 93.76141357 C27.30263168 92.76249084 27.30172028 91.76356812 27.30078125 90.734375 C27.30720894 89.19514374 27.30720894 89.19514374 27.31376648 87.62481689 C27.31951835 85.44926695 27.32000377 83.27369777 27.31567383 81.09814453 C27.31252591 77.77733195 27.33592089 74.4574203 27.36132812 71.13671875 C27.3636023 69.02343862 27.36430407 66.9101561 27.36328125 64.796875 C27.372491 63.80604919 27.38170074 62.81522339 27.39118958 61.79437256 C27.35567117 56.46804722 27.09320325 52.55248391 24 48 C19.92883311 45.28588874 16.78207053 45.11415334 12 46 C7.85120495 48.09691037 4.28298477 50.71701523 1 54 C0.68768896 56.07913232 0.68768896 56.07913232 0.7253418 58.49389648 C0.71580978 59.42503769 0.70627777 60.35617889 0.69645691 61.3155365 C0.69782402 62.82803734 0.69782402 62.82803734 0.69921875 64.37109375 C0.69493362 65.40436295 0.6906485 66.43763214 0.68623352 67.50221252 C0.68048317 69.69035102 0.67999512 71.87850863 0.68432617 74.06665039 C0.68748391 77.42041559 0.6640429 80.77329724 0.63867188 84.12695312 C0.6363988 86.24999888 0.63569543 88.37304702 0.63671875 90.49609375 C0.627509 91.50240341 0.61829926 92.50871307 0.60881042 93.54551697 C0.61815361 94.94695702 0.61815361 94.94695702 0.62768555 96.37670898 C0.62705612 97.19896469 0.6264267 98.0212204 0.6257782 98.86839294 C1.0935932 101.53311679 1.87421451 102.36976339 4 104 C7.10007201 105.20049407 7.10007201 105.20049407 10 106 C10 106.99 10 107.98 10 109 C-1.55 109 -13.1 109 -25 109 C-25 108.01 -25 107.02 -25 106 C-24.43410156 105.80664062 -23.86820313 105.61328125 -23.28515625 105.4140625 C-22.18494141 105.02347656 -22.18494141 105.02347656 -21.0625 104.625 C-20.33160156 104.36976563 -19.60070312 104.11453125 -18.84765625 103.8515625 C-16.81317884 103.14728587 -16.81317884 103.14728587 -16 101 C-15.90668986 98.16219263 -15.87424639 95.34910226 -15.88647461 92.51123047 C-15.88632858 91.63311707 -15.88618256 90.75500366 -15.8860321 89.85028076 C-15.88673042 86.9392248 -15.89451905 84.02823232 -15.90234375 81.1171875 C-15.90420822 79.10222407 -15.90563198 77.08726019 -15.90663147 75.07229614 C-15.91045438 69.7622147 -15.92028276 64.4521605 -15.93133545 59.14208984 C-15.94155441 53.72624073 -15.94613013 48.31038722 -15.95117188 42.89453125 C-15.96190521 32.26300885 -15.97897894 21.63150669 -16 11 C-18.97 10.67 -21.94 10.34 -25 10 C-24.67 8.68 -24.34 7.36 -24 6 C-22.11401367 4.99511719 -22.11401367 4.99511719 -19.66796875 4.296875 C-18.34635742 3.91015625 -18.34635742 3.91015625 -16.99804688 3.515625 C-16.07056641 3.26296875 -15.14308594 3.0103125 -14.1875 2.75 C-13.27162109 2.481875 -12.35574219 2.21375 -11.41210938 1.9375 C-7.39782261 0.79139628 -4.2143124 0 0 0 Z " fill="#363334" transform="translate(750,41)"/>
<path d="M0 0 C0.0154612 1.81950417 0.0154612 1.81950417 0.03123474 3.67576599 C0.12878838 15.08051918 0.23150485 26.48521561 0.33933926 37.88987637 C0.39461666 43.75379448 0.44804422 49.61771754 0.49731445 55.48168945 C0.54488712 61.13566145 0.59722707 66.78957066 0.65294075 72.44346809 C0.67339658 74.60571807 0.69210419 76.76798528 0.70907402 78.93026543 C0.73304684 81.94763325 0.76311075 84.96488119 0.79467773 87.98217773 C0.8004332 88.8856041 0.80618866 89.78903046 0.81211853 90.71983337 C0.46691135 94.67724123 0.46691135 94.67724123 2 98 C3.34747084 98.23075082 4.70377565 98.41153063 6.0625 98.5625 C7.361875 98.706875 8.66125 98.85125 10 99 C10 100.32 10 101.64 10 103 C2.08 105.64 -5.84 108.28 -14 111 C-15.96822886 109.03177114 -15.66248381 105.65191291 -16 103 C-16.43828125 103.40992188 -16.8765625 103.81984375 -17.328125 104.2421875 C-23.75886982 109.70570648 -30.28929146 111.26677763 -38.67578125 110.875 C-45.97150123 109.78574787 -51.9666001 106.52351255 -56.7890625 100.921875 C-58.38034329 98.67997202 -59.72204609 96.43302763 -61 94 C-61.3403125 93.35804688 -61.680625 92.71609375 -62.03125 92.0546875 C-65.99772785 82.68939257 -65.51619103 68.67071023 -62.0390625 59.23046875 C-57.31837705 49.09696728 -51.70975505 40.91948088 -41.0625 36.7109375 C-32.22729116 33.66546779 -25.26653315 35.05676867 -17 39 C-16.67 39.33 -16.34 39.66 -16 40 C-16 30.76 -16 21.52 -16 12 C-20.455 11.01 -20.455 11.01 -25 10 C-25 8.68 -25 7.36 -25 6 C-21.58583753 4.99131083 -18.16829771 3.99457679 -14.75 3 C-13.29787109 2.57074219 -13.29787109 2.57074219 -11.81640625 2.1328125 C-10.41455078 1.72675781 -10.41455078 1.72675781 -8.984375 1.3125 C-8.12553711 1.06113281 -7.26669922 0.80976562 -6.38183594 0.55078125 C-4 0 -4 0 0 0 Z M-42.8125 45.625 C-49.74833782 55.27277441 -51.03797653 66.07865741 -49.69140625 77.65234375 C-48.03669221 87.15596684 -44.50622519 93.94278144 -36.625 99.75 C-31.83154957 102.03259544 -27.83052608 102.51937504 -22.8125 100.8125 C-19.37830065 99.50456664 -17.23039182 97.94617611 -15 95 C-14.39196034 91.82068501 -14.43963506 88.67813461 -14.46875 85.44921875 C-14.4649231 84.51705032 -14.46109619 83.5848819 -14.45715332 82.62446594 C-14.45443349 80.65336019 -14.46179966 78.68221839 -14.47851562 76.71118164 C-14.49985208 73.70831766 -14.47875405 70.70786595 -14.453125 67.70507812 C-14.45576968 65.78645309 -14.46089755 63.86782954 -14.46875 61.94921875 C-14.46065308 61.05732346 -14.45255615 60.16542816 -14.44421387 59.24650574 C-14.53222669 53.33098255 -15.56044518 49.84988184 -19 45 C-26.820204 38.53983148 -35.38929306 38.69667352 -42.8125 45.625 Z " fill="#363334" transform="translate(651,41)"/>
<path d="M0 0 C0.33 15.18 0.66 30.36 1 46 C3.97 43.36 6.94 40.72 10 38 C17.40162264 34.71038994 23.8534237 33.80522378 31.6875 36.0625 C37.47946868 39.45025527 40.78663782 43.3604839 42.576828 49.87832642 C43.39685733 53.98973871 43.32002164 58.13752025 43.34375 62.31640625 C43.3583728 63.2910936 43.37299561 64.26578094 43.38806152 65.27000427 C43.44997605 69.41514421 43.48988199 73.5604274 43.53173828 77.70581055 C43.565565 80.74283063 43.61064453 83.77954386 43.65625 86.81640625 C43.66416565 88.21349571 43.66416565 88.21349571 43.67224121 89.6388092 C43.74577023 94.45084745 44.00814814 98.52437602 46 103 C47.66099111 104.32486711 47.66099111 104.32486711 49.625 104.875 C50.73875 105.24625 51.8525 105.6175 53 106 C53 106.99 53 107.98 53 109 C41.45 109 29.9 109 18 109 C18 108.01 18 107.02 18 106 C18.55429687 105.82984375 19.10859375 105.6596875 19.6796875 105.484375 C20.40414062 105.24203125 21.12859375 104.9996875 21.875 104.75 C22.59429687 104.51796875 23.31359375 104.2859375 24.0546875 104.046875 C26.54773409 102.70523547 26.94641154 101.59807845 28 99 C28.30520466 96.87231794 28.30520466 96.87231794 28.2746582 94.61791992 C28.28419022 93.7599028 28.29372223 92.90188568 28.30354309 92.01786804 C28.30263168 91.09802628 28.30172028 90.17818451 28.30078125 89.23046875 C28.30720894 87.79892204 28.30720894 87.79892204 28.31376648 86.3384552 C28.31950538 84.32029004 28.32001328 82.3021042 28.31567383 80.28393555 C28.31252215 77.20910946 28.33594991 74.13525348 28.36132812 71.06054688 C28.36360211 69.09635538 28.36430415 67.1321613 28.36328125 65.16796875 C28.372491 64.25419968 28.38170074 63.3404306 28.39118958 62.39897156 C28.35131628 56.84588125 27.72003402 52.88441364 25 48 C20.93566296 45.29044197 17.77452006 45.2351497 13 46 C10.02799912 47.3087232 7.51497496 48.95355356 5 51 C3.96782349 51.75398071 3.96782349 51.75398071 2.91479492 52.52319336 C0.05100314 56.22753706 0.46236865 59.5545652 0.5390625 64.11328125 C0.53997894 65.00105759 0.54089539 65.88883392 0.5418396 66.80351257 C0.54787577 68.68050484 0.56362232 70.55748747 0.58837891 72.43432617 C0.62473751 75.29186969 0.62939909 78.14810933 0.62890625 81.00585938 C0.63874399 82.83334443 0.65040384 84.66082076 0.6640625 86.48828125 C0.66628815 87.33642899 0.66851379 88.18457672 0.67080688 89.0584259 C0.74981711 94.05805198 1.26611692 98.29066893 3 103 C4.87587236 104.44941163 4.87587236 104.44941163 7.125 104.9375 C8.21167969 105.26041016 8.21167969 105.26041016 9.3203125 105.58984375 C9.87460937 105.72519531 10.42890625 105.86054688 11 106 C11 106.99 11 107.98 11 109 C-0.55 109 -12.1 109 -24 109 C-24 108.01 -24 107.02 -24 106 C-21.03 105.01 -18.06 104.02 -15 103 C-15 72.64 -15 42.28 -15 11 C-17.97 10.67 -20.94 10.34 -24 10 C-23.67 8.68 -23.34 7.36 -23 6 C-21.20581055 4.99511719 -21.20581055 4.99511719 -18.88671875 4.296875 C-18.05076172 4.0390625 -17.21480469 3.78125 -16.35351562 3.515625 C-15.47373047 3.26296875 -14.59394531 3.0103125 -13.6875 2.75 C-12.81931641 2.481875 -11.95113281 2.21375 -11.05664062 1.9375 C-7.1365957 0.7581772 -4.14277514 0 0 0 Z " fill="#363334" transform="translate(281,41)"/>
<path d="M0 0 C0.33 14.85 0.66 29.7 1 45 C2.65 43.35 4.3 41.7 6 40 C12.06851004 35.7104087 17.61467053 34.2941455 25 35 C32.37544922 36.51885342 39.01802744 39.88720148 43.50390625 46.07421875 C44.82619449 48.33592371 45.9407286 50.60460216 47 53 C47.3196875 53.67675781 47.639375 54.35351562 47.96875 55.05078125 C52.12839542 65.27657623 51.08264772 77.90892733 47 88 C42.39189018 97.74737248 35.28761334 105.31268339 25 109 C12.12736197 112.71248495 -0.24659355 110.83770368 -12.11410522 104.95140076 C-15.02854658 101.93572717 -14.55443131 98.61546619 -14.51416016 94.64477539 C-14.52128525 93.79244827 -14.52841034 92.94012115 -14.53575134 92.06196594 C-14.55507373 89.24029543 -14.54674479 86.41937123 -14.5390625 83.59765625 C-14.54896463 81.63853353 -14.56090403 79.67942013 -14.57479858 77.72032166 C-14.60721727 72.55807549 -14.6175576 67.39604155 -14.62164307 62.23370361 C-14.63038659 53.97393268 -14.66585347 45.71433665 -14.7138176 37.45471001 C-14.72642138 34.56748352 -14.72564287 31.68047663 -14.72354126 28.79322815 C-14.73012157 27.02369009 -14.73712783 25.25415354 -14.74462891 23.48461914 C-14.74050491 22.68084839 -14.73638092 21.87707764 -14.73213196 21.0489502 C-14.73356373 15.69936239 -14.73356373 15.69936239 -17 11 C-19.67790463 10.16113831 -22.1737941 10.18233586 -25 10 C-24.77075195 8.10644531 -24.77075195 8.10644531 -24 6 C-22.11401367 4.99511719 -22.11401367 4.99511719 -19.66796875 4.296875 C-18.34635742 3.91015625 -18.34635742 3.91015625 -16.99804688 3.515625 C-16.07056641 3.26296875 -15.14308594 3.0103125 -14.1875 2.75 C-13.27162109 2.481875 -12.35574219 2.21375 -11.41210938 1.9375 C-7.39782261 0.79139628 -4.2143124 0 0 0 Z M2.36572266 51.48779297 C-0.99012697 55.64848236 -0.72082393 59.91676988 -0.6640625 65.0703125 C-0.66884613 66.0289621 -0.67362976 66.98761169 -0.67855835 67.97531128 C-0.68194988 69.99413705 -0.67279989 72.01301831 -0.65185547 74.03173828 C-0.62502032 77.12266007 -0.65165881 80.20997007 -0.68359375 83.30078125 C-0.68029067 85.26563301 -0.67388655 87.23048252 -0.6640625 89.1953125 C-0.67418365 90.11829132 -0.68430481 91.04127014 -0.69473267 91.99221802 C-0.64682338 97.29250247 -0.64682338 97.29250247 2.34228516 101.53076172 C8.87328551 105.14123022 14.81065986 105.63988255 22 104 C27.95847968 100.91041795 31.48604144 96.97393378 33.75 90.6875 C36.95612238 78.88474179 35.98284648 65.41633483 30.1875 54.625 C26.98108473 50.77730167 23.84831369 47.61610456 19 46 C11.88059902 45.53315403 7.72984979 46.42194908 2.36572266 51.48779297 Z " fill="#363334" transform="translate(908,41)"/>
<path d="M0 0 C0.33 3.63 0.66 7.26 1 11 C1.61746094 10.45730469 2.23492188 9.91460937 2.87109375 9.35546875 C9.54262494 3.71970039 14.89523364 0.62690113 23.5625 -0.4375 C29.29849109 0.29253523 33.95074332 2.50735959 37.875 6.8125 C42.36465749 13.54698623 42.3130636 20.21845873 42.37890625 28.078125 C42.39590073 29.1265155 42.4128952 30.17490601 42.43040466 31.25506592 C42.48330149 34.58665028 42.52374162 37.91822355 42.5625 41.25 C42.60646306 44.59599764 42.65314757 47.9419006 42.70530701 51.28778076 C42.73720809 53.36554815 42.76411552 55.44339942 42.78553772 57.52130127 C42.79902756 58.45947693 42.8125174 59.39765259 42.82641602 60.36425781 C42.84068382 61.60166718 42.84068382 61.60166718 42.85523987 62.86407471 C42.92280687 65.18734581 42.92280687 65.18734581 44 68 C45.8653245 69.01754868 45.8653245 69.01754868 48.0625 69.6875 C48.79597656 69.93886719 49.52945313 70.19023437 50.28515625 70.44921875 C50.85105469 70.63097656 51.41695312 70.81273437 52 71 C52 71.99 52 72.98 52 74 C40.78 74 29.56 74 18 74 C18 73.01 18 72.02 18 71 C19.7578125 70.38151042 21.515625 69.76302083 23.2734375 69.14453125 C25.83670944 67.44534872 26.11062095 65.95990877 27 63 C27.30024325 59.78353956 27.3040773 56.58034633 27.30078125 53.3515625 C27.30720894 51.95543228 27.30720894 51.95543228 27.31376648 50.53109741 C27.31949821 48.56598726 27.32001858 46.6008559 27.31567383 44.63574219 C27.31251814 41.64220637 27.33597273 38.64966346 27.36132812 35.65625 C27.36360179 33.74218874 27.3643043 31.82812484 27.36328125 29.9140625 C27.372491 29.02530426 27.38170074 28.13654602 27.39118958 27.22085571 C27.35068975 21.73167273 26.67714764 17.83292088 24 13 C20.24001348 10.49334232 17.34600122 10.13516029 13 11 C9.16518516 12.85109938 5.03959297 14.96040703 2 18 C1.89641221 19.52386231 1.86148862 21.05246986 1.85473633 22.57983398 C1.84835648 23.55431992 1.84197662 24.52880585 1.83540344 25.53282166 C1.83429062 26.59320145 1.8331778 27.65358124 1.83203125 28.74609375 C1.82870285 29.82754166 1.82537445 30.90898956 1.82194519 32.02320862 C1.81687123 34.31567966 1.81453701 36.60815812 1.81469727 38.90063477 C1.81251155 42.41890567 1.79436272 45.93686281 1.77539062 49.45507812 C1.77245672 51.67708225 1.77047191 53.89908788 1.76953125 56.12109375 C1.76234573 57.17944931 1.75516022 58.23780487 1.74775696 59.32823181 C1.75083359 60.3058699 1.75391022 61.283508 1.75708008 62.29077148 C1.75565506 63.15379379 1.75423004 64.0168161 1.75276184 64.9059906 C1.80677892 67.21965718 1.80677892 67.21965718 4 69 C6.31765729 69.71927295 8.65095874 70.3909893 11 71 C11 71.99 11 72.98 11 74 C-0.22 74 -11.44 74 -23 74 C-23 73.01 -23 72.02 -23 71 C-21.2421875 70.44661458 -19.484375 69.89322917 -17.7265625 69.33984375 C-15.00413636 67.22719179 -14.61660718 64.25209654 -14 61 C-13.72771106 57.70419449 -13.71926362 54.42678346 -13.734375 51.12109375 C-13.73246155 50.19079849 -13.7305481 49.26050323 -13.72857666 48.30201721 C-13.72722161 46.34465259 -13.73087033 44.38727877 -13.73925781 42.42993164 C-13.74997912 39.44331608 -13.73933308 36.45730031 -13.7265625 33.47070312 C-13.72788398 31.56249868 -13.73044613 29.65429461 -13.734375 27.74609375 C-13.73032654 26.85844833 -13.72627808 25.97080292 -13.72210693 25.05625916 C-13.75785783 20.30495986 -14.16324449 16.46557764 -16 12 C-19.97754128 11.26665571 -19.97754128 11.26665571 -24 11 C-24 9.68 -24 8.36 -24 7 C-20.56496228 5.82599412 -17.12659286 4.66206791 -13.6875 3.5 C-12.71103516 3.16613281 -11.73457031 2.83226563 -10.72851562 2.48828125 C-9.79072266 2.17246094 -8.85292969 1.85664062 -7.88671875 1.53125 C-6.59060669 1.09135742 -6.59060669 1.09135742 -5.26831055 0.64257812 C-3 0 -3 0 0 0 Z " fill="#363334" transform="translate(529,76)"/>
<path d="M0 0 C7.92 0 15.84 0 24 0 C24.00410889 1.66498535 24.00821777 3.3299707 24.01245117 5.04541016 C24.03424082 11.22931779 24.08853071 17.41258902 24.15258789 23.59619141 C24.17853893 26.27158106 24.19016287 28.94594574 24.19555664 31.62158203 C24.2048446 35.4696543 24.24583722 39.31629047 24.29296875 43.1640625 C24.2890361 44.35802643 24.28510345 45.55199036 24.28105164 46.78213501 C24.29287395 53.74652843 24.29287395 53.74652843 27.39453125 59.75683594 C30.98936396 62.85178749 32.87545611 62.7437127 37.42578125 62.46484375 C41.36412202 61.75367144 44.76613327 60.36991704 48 58 C50.11571082 54.82643377 50.25421352 54.02784384 50.2746582 50.39257812 C50.28419022 49.46151245 50.29372223 48.53044678 50.30354309 47.57116699 C50.30263168 46.56799438 50.30172028 45.56482178 50.30078125 44.53125 C50.30720894 42.98346863 50.30720894 42.98346863 50.31376648 41.40441895 C50.31951086 39.22225682 50.32000926 37.04007554 50.31567383 34.85791016 C50.3125123 31.51301563 50.33597766 28.16900398 50.36132812 24.82421875 C50.36360088 22.70573029 50.36430472 20.58723944 50.36328125 18.46875 C50.372491 17.46557739 50.38170074 16.46240479 50.39118958 15.42883301 C50.38184639 14.0322345 50.38184639 14.0322345 50.37231445 12.60742188 C50.37294388 11.78818237 50.3735733 10.96894287 50.3742218 10.12487793 C49.91057607 7.49223983 49.07826526 6.62913764 47 5 C44.96658113 4.22186348 44.96658113 4.22186348 42.8125 3.8125 C41.554375 3.544375 40.29625 3.27625 39 3 C39 2.01 39 1.02 39 0 C47.58 0 56.16 0 65 0 C65.06058594 3.81691406 65.12117187 7.63382812 65.18359375 11.56640625 C65.24544568 15.27321226 65.30880746 18.9799896 65.37231445 22.68676758 C65.41556026 25.25803057 65.45724245 27.82932036 65.49731445 30.40063477 C65.55526825 34.10180733 65.61889007 37.80284628 65.68359375 41.50390625 C65.70030624 42.64896133 65.71701874 43.79401642 65.73423767 44.97377014 C65.83450297 50.4059421 66.05444092 55.64631853 67 61 C69.64 61.66 72.28 62.32 75 63 C75 64.32 75 65.64 75 67 C71.91968584 68.0094696 68.8353041 69.00589621 65.75 70 C64.87730469 70.28617187 64.00460937 70.57234375 63.10546875 70.8671875 C61.83896484 71.27324219 61.83896484 71.27324219 60.546875 71.6875 C59.77182617 71.93886719 58.99677734 72.19023437 58.19824219 72.44921875 C56 73 56 73 52 73 C51.67 69.37 51.34 65.74 51 62 C49.824375 63.258125 48.64875 64.51625 47.4375 65.8125 C41.79907734 71.36251534 37.34932966 73.14177146 29.4375 73.375 C23.54212412 73.20636797 19.64448121 72.65074775 15.3515625 68.34765625 C11.55594259 64.13327076 9.89815427 61.13296529 9.81054688 55.36425781 C9.79382935 54.42608215 9.77711182 53.48790649 9.7598877 52.52130127 C9.74631226 51.5088031 9.73273682 50.49630493 9.71875 49.453125 C9.70034058 48.4085614 9.68193115 47.3639978 9.66296387 46.28778076 C9.60417353 42.94191152 9.55141025 39.59599028 9.5 36.25 C9.4321087 31.85927297 9.35834716 27.46869888 9.28125 23.078125 C9.26767456 22.07372375 9.25409912 21.06932251 9.2401123 20.03448486 C9.15035713 14.92979458 8.8649198 10.03369317 8 5 C5.36 4.34 2.72 3.68 0 3 C0 2.01 0 1.02 0 0 Z " fill="#363334" transform="translate(805,78)"/>
<path d="M0 0 C7.02501857 6.77007838 7.87658034 14.25869187 9.625 23.875 C-6.545 23.875 -22.715 23.875 -39.375 23.875 C-36.85421077 40.65619422 -36.85421077 40.65619422 -27.875 53.375 C-21.98813971 56.90711617 -16.07034819 57.87984105 -9.3671875 56.4453125 C-1.33836297 53.89498 4.44713337 48.01218883 8.625 40.875 C9.945 41.535 11.265 42.195 12.625 42.875 C7.54224907 54.04588117 2.39548347 63.08176535 -9.375 67.875 C-18.20154047 70.73611523 -27.11353487 70.62976315 -35.625 66.8125 C-43.46190492 62.4462244 -47.93422146 56.41648132 -50.65625 47.921875 C-53.85100058 34.37891057 -52.82615779 20.81653173 -46.13671875 8.5390625 C-40.9694077 0.72507994 -33.64458328 -3.29000002 -24.8125 -5.875 C-15.65313115 -6.81442245 -7.39644612 -5.92540572 0 0 Z M-35.65625 6.48828125 C-38.07333304 10.38151143 -38.60181357 13.23588144 -39.375 17.875 C-29.145 17.875 -18.915 17.875 -8.375 17.875 C-9.28898556 8.83569438 -9.28898556 8.83569438 -14.4375 2 C-21.95489179 -0.87900111 -30.40216588 -0.12737955 -35.65625 6.48828125 Z " fill="#363334" transform="translate(170.375,82.125)"/>
<path d="M0 0 C2.82328805 2.83020787 3.53742993 5.14709569 4.03125 9.09765625 C3.59375 12.59765625 3.59375 12.59765625 1.46875 15.03515625 C-1.90004821 16.86602484 -3.63152006 17.24016347 -7.40625 16.59765625 C-10.85576287 13.77234095 -12.18285615 11.17647237 -13.53125 6.97265625 C-14.79575046 2.88308406 -14.79575046 2.88308406 -17.40625 -0.40234375 C-23.25994867 -1.21301785 -28.49444072 -0.86293665 -33.40625 2.59765625 C-39.52012626 8.00550749 -41.76222183 14.24665676 -42.72265625 22.2265625 C-43.13993618 31.47402413 -41.01255214 40.9946969 -35.03125 48.22265625 C-30.03075829 53.2021375 -26.09684688 54.77205271 -19.03125 55.09765625 C-12.85419625 54.92919115 -8.95028659 53.80213846 -4.40625 49.59765625 C-2.49771885 47.51176665 -0.68557995 45.403161 1.05078125 43.171875 C1.81455078 42.39263672 1.81455078 42.39263672 2.59375 41.59765625 C3.58375 41.59765625 4.57375 41.59765625 5.59375 41.59765625 C4.34865185 50.32910402 -1.70403226 57.83227883 -8.4453125 63.23046875 C-15.70535956 68.29225455 -23.85673539 69.34568021 -32.46875 68.03515625 C-41.32791662 65.91062256 -47.12177854 60.78845385 -51.96484375 53.21484375 C-57.95443156 42.33944041 -58.05584895 29.39443322 -54.78125 17.59765625 C-51.23810399 7.59783649 -44.78091367 0.61618556 -35.44921875 -4.46875 C-23.2706314 -9.9610541 -10.47258633 -8.04758171 0 0 Z " fill="#363334" transform="translate(245.40625,83.40234375)"/>
<path d="M0 0 C0.80566406 0.09796875 1.61132812 0.1959375 2.44140625 0.296875 C4.29456083 0.52894592 6.14731574 0.76420382 8 1 C8.99 1 9.98 1 11 1 C11.79725902 8.36040917 12.12886183 15.59760355 12 23 C10.68 23 9.36 23 8 23 C7.70867188 22.11957031 7.41734375 21.23914063 7.1171875 20.33203125 C4.10887972 11.0126061 4.10887972 11.0126061 -3 5 C-7.76833632 4.24105258 -11.64006765 4.38941813 -16.0625 6.375 C-18.98040831 8.82227794 -18.98459105 9.84591054 -19.375 13.75 C-19.62385787 17.07683676 -18.89929515 18.14767467 -16.96484375 20.984375 C-13.88337653 24.44583889 -10.26507549 26.39688967 -6.1875 28.5 C-4.75438126 29.27472008 -3.32336091 30.05333522 -1.89453125 30.8359375 C-1.21729004 31.20686523 -0.54004883 31.57779297 0.15771484 31.95996094 C7.00363699 35.82474074 14.4327044 41.29811319 17 49 C17.53781878 55.00909059 17.46850491 59.85704445 14 65 C9.35434568 70.41993004 4.3896989 73.89961682 -2.6875 74.875 C-7.69647584 75.21860353 -12.31961787 74.41737363 -17.23046875 73.484375 C-22.14671624 72.62455174 -26.11686793 72.77921698 -31 74 C-31 65.42 -31 56.84 -31 48 C-29.68 48.33 -28.36 48.66 -27 49 C-25.875 51.29296875 -25.875 51.29296875 -25 54.1875 C-23.10674811 59.84524111 -21.38997866 64.25123512 -16.4375 67.875 C-11.57679429 69.46577641 -7.0649797 69.7169606 -2 69 C1.00197464 67.19881522 2.45166366 66.09667268 4 63 C4.3843001 57.90802364 4.13636927 55.05268108 1 51 C-1.58059451 49.13850837 -4.33222881 47.64306484 -7.125 46.125 C-24.99201388 36.01397571 -24.99201388 36.01397571 -30.25 26.8125 C-32.02637484 20.15109436 -31.80049062 13.79164161 -28.32421875 7.75390625 C-24.791496 3.07487228 -20.04560479 0.40061595 -14.30078125 -0.79296875 C-9.5028472 -1.22470136 -4.76258479 -0.58813128 0 0 Z " fill="#363334" transform="translate(701,77)"/>
<path d="M0 0 C0.01213028 1.18937164 0.01213028 1.18937164 0.02450562 2.402771 C0.10246606 9.87747147 0.18976099 17.35197715 0.28752708 24.82644272 C0.33746005 28.66908919 0.38379023 32.51170857 0.421875 36.35449219 C0.4587659 40.06341688 0.50513596 43.77211329 0.55806351 47.48084259 C0.57658729 48.89536787 0.59170272 50.30994205 0.60334396 51.72454071 C0.62024013 53.70675762 0.65040923 55.68884792 0.68115234 57.67089844 C0.69447601 58.79896912 0.70779968 59.92703979 0.7215271 61.08929443 C0.99525167 63.95036866 1.41388742 65.62527956 3 68 C5.16281282 69.1225649 5.16281282 69.1225649 7.625 69.75 C8.44226563 69.99234375 9.25953125 70.2346875 10.1015625 70.484375 C10.72804688 70.65453125 11.35453125 70.8246875 12 71 C12 71.99 12 72.98 12 74 C-0.87 74 -13.74 74 -27 74 C-27 73.01 -27 72.02 -27 71 C-26.30132812 70.84144531 -25.60265625 70.68289062 -24.8828125 70.51953125 C-23.51769531 70.16955078 -23.51769531 70.16955078 -22.125 69.8125 C-21.22007812 69.59207031 -20.31515625 69.37164062 -19.3828125 69.14453125 C-16.88873576 68.2186319 -16.88873576 68.2186319 -15.86767578 66.07910156 C-14.59992546 61.58026446 -14.71491376 57.24231508 -14.734375 52.58984375 C-14.73246155 51.58538712 -14.7305481 50.58093048 -14.72857666 49.54603577 C-14.72721821 47.42709095 -14.73089087 45.30813772 -14.73925781 43.18920898 C-14.74997321 39.94561095 -14.73934509 36.70256535 -14.7265625 33.45898438 C-14.72788394 31.39843628 -14.730446 29.33788852 -14.734375 27.27734375 C-14.73032654 26.30748032 -14.72627808 25.33761688 -14.72210693 24.33836365 C-14.72841125 23.43384964 -14.73471558 22.52933563 -14.74121094 21.59741211 C-14.74280212 20.80419052 -14.74439331 20.01096893 -14.74603271 19.19371033 C-15.03610184 16.68816068 -15.61166238 15.1040466 -17 13 C-20.1964086 11.93453047 -22.65747276 11.92572162 -26 12 C-25.81616211 10.13378906 -25.81616211 10.13378906 -25 8 C-22.80688477 6.81152344 -22.80688477 6.81152344 -19.94140625 5.859375 C-18.40323242 5.33730469 -18.40323242 5.33730469 -16.83398438 4.8046875 C-15.21459961 4.28261719 -15.21459961 4.28261719 -13.5625 3.75 C-12.48677734 3.38648437 -11.41105469 3.02296875 -10.30273438 2.6484375 C-2.37235667 0 -2.37235667 0 0 0 Z " fill="#363334" transform="translate(488,76)"/>
<path d="M0 0 C2.9375 2.0625 2.9375 2.0625 5 5 C5.63127485 8.99807408 5.67917484 11.00735985 3.375 14.375 C0.43721938 16.38506043 -1.4396496 16.92733979 -5 17 C-7.86332091 15.76356597 -9.49288133 14.66847461 -11.375 12.1875 C-12.26089715 9.08685996 -11.89945179 7.08383471 -11 4 C-7.97573286 -0.42008274 -5.17880165 -0.81770552 0 0 Z " fill="#363334" transform="translate(483,41)"/>
</svg>
